# xmcd
#
# Track frame offsets:
#	150
#	19450
#	42040
#	60310
#	79742
#	102725
#	125327
#	148700
#	170505
#	188965
#	210572
#
# Disc length: 3060 seconds
#
# Revision: 1
# Processed by: cddbd v1.5.1PL0 Copyright (c) Steve Scherf et al.
# Submitted via: audiograbber 1.83.01
#
DISCID=990bf20b
DTITLE=Blackstreet - The Best Of BlackStreet
DYEAR=1900
DGENRE=Rhythmic Soul
TTITLE0=Booti Call
TTITLE1=Before I Let You Go
TTITLE2=Joy (New Carnegie Mix)
TTITLE3=Tonight's The Night
TTITLE4=No Diggity
TTITLE5=Never Gonna Let You Go
TTITLE6=Don't Leave Me
TTITLE7=I Can't Get You Out Of My Mind
TTITLE8=Fix (Main Mix)
TTITLE9=Coming Home To You
TTITLE10=The Lord Is Real (Time Will Reveal)
EXTD=
EXTT0=
EXTT1=
EXTT2=
EXTT3=
EXTT4=
EXTT5=
EXTT6=
EXTT7=
EXTT8=
EXTT9=
EXTT10=
PLAYORDER=
